<?xml version="1.0" encoding="UTF-8"?>
<svg width="280px" height="60px" viewBox="0 0 280 60" version="1.1" xmlns="http://www.w3.org/2000/svg" xmlns:xlink="http://www.w3.org/1999/xlink">
    <!-- Generator: Sketch 52.6 (67491) - http://www.bohemiancoding.com/sketch -->
    <title>logo / papriika-logo-wordmark-1</title>
    <desc>Created with Sketch.</desc>
    <g id="Symbols" stroke="none" stroke-width="1" fill="none" fill-rule="evenodd">
        <g id="Logo-/-papriika-logo-wordmark-1" fill="#000000">
            <g id="papriika-logo-wordmark-1">
                <path d="M18.96,30.1641 L22.842,30.1641 C26.65,30.1641 28.897,28.1861 28.897,24.5001 C28.897,20.8381 26.65,18.8601 22.891,18.8601 L18.96,18.8601 L18.96,30.1641 Z M25.259,12.0001 C32.827,12.0001 37.954,16.9071 37.954,24.4761 C37.954,31.9951 32.559,36.9021 24.722,36.9021 L18.96,36.9021 L18.96,47.2291 L10,47.2291 L10,12.0001 L25.259,12.0001 Z M54.4775,33.0449 L62.5095,33.0449 L58.6035,19.4709 L58.4085,19.4709 L54.4775,33.0449 Z M64.2675,39.4899 L52.7445,39.4899 L50.4985,47.2299 L41.3675,47.2299 L53.2075,11.9999 L64.1695,11.9999 L76.0105,47.2299 L66.4895,47.2299 L64.2675,39.4899 Z M93.3398,30.1641 L97.2218,30.1641 C101.0298,30.1641 103.2768,28.1861 103.2768,24.5001 C103.2768,20.8381 101.0298,18.8601 97.2708,18.8601 L93.3398,18.8601 L93.3398,30.1641 Z M99.6388,12.0001 C107.2068,12.0001 112.3338,16.9071 112.3338,24.4761 C112.3338,31.9951 106.9388,36.9021 99.1018,36.9021 L93.3398,36.9021 L93.3398,47.2291 L84.3798,47.2291 L84.3798,12.0001 L99.6388,12.0001 Z M130.2734,28.7725 L135.5224,28.7725 C138.8184,28.7725 140.7714,26.8435 140.7714,23.7925 C140.7714,20.7895 138.6964,18.7625 135.4984,18.7625 L130.2734,18.7625 L130.2734,28.7725 Z M130.2734,47.2295 L121.3134,47.2295 L121.3134,12.0005 L136.4014,12.0005 C145.1904,12.0005 149.9264,16.3455 149.9264,23.6215 C149.9264,27.9425 147.7534,31.8975 143.8964,33.5825 L150.9524,47.2295 L140.8934,47.2295 L134.8384,34.9005 L130.2734,34.9005 L130.2734,47.2295 Z M159.395,47.2295 L159.395,12.0005 L168.355,12.0005 L168.355,47.2295 L159.395,47.2295 Z M178.677,47.2295 L178.677,12.0005 L187.637,12.0005 L187.637,47.2295 L178.677,47.2295 Z M197.959,47.2295 L197.959,12.0005 L206.919,12.0005 L206.919,27.4785 L207.114,27.4785 L219.102,12.0005 L228.721,12.0005 L216.44,27.6495 L229.429,47.2295 L218.906,47.2295 L209.922,33.4595 L206.919,37.2685 L206.919,47.2295 L197.959,47.2295 Z M248.3203,33.0449 L256.3523,33.0449 L252.4463,19.4709 L252.2513,19.4709 L248.3203,33.0449 Z M258.1103,39.4899 L246.5873,39.4899 L244.3413,47.2299 L235.2103,47.2299 L247.0503,11.9999 L258.0123,11.9999 L269.8533,47.2299 L260.3323,47.2299 L258.1103,39.4899 Z" id="papriika-wordmark-100"></path>
            </g>
        </g>
    </g>
</svg>