<?xml version="1.0" encoding="UTF-8"?>
<svg width="286px" height="63px" viewBox="0 0 286 63" version="1.1" xmlns="http://www.w3.org/2000/svg" xmlns:xlink="http://www.w3.org/1999/xlink">
    <!-- Generator: Sketch 52.6 (67491) - http://www.bohemiancoding.com/sketch -->
    <title>logo / papriika-logo-wordmark-2-white</title>
    <desc>Created with Sketch.</desc>
    <g id="Symbols" stroke="none" stroke-width="1" fill="none" fill-rule="evenodd">
        <g id="Logo-/-papriika-logo-wordmark-2-white" fill="#FFFFFF">
            <g id="papriika-logo-wordmark-2-white">
                <path d="M23.7178,31.6475 L27.0628,31.6475 C30.3438,31.6475 32.2788,29.9445 32.2788,26.7675 C32.2788,23.6145 30.3438,21.9105 27.1048,21.9105 L23.7178,21.9105 L23.7178,31.6475 Z M29.1448,16.0005 C35.6638,16.0005 40.0798,20.2275 40.0798,26.7475 C40.0798,33.2255 35.4328,37.4525 28.6818,37.4525 L23.7178,37.4525 L23.7178,46.3485 L15.9998,46.3485 L15.9998,16.0005 L29.1448,16.0005 Z M58.6221,34.1299 L65.5411,34.1299 L62.1761,22.4369 L62.0081,22.4369 L58.6221,34.1299 Z M67.0561,39.6829 L57.1291,39.6829 L55.1931,46.3489 L47.3281,46.3489 L57.5281,15.9999 L66.9711,15.9999 L77.1721,46.3489 L68.9701,46.3489 L67.0561,39.6829 Z M96.4072,31.6475 L99.7512,31.6475 C103.0312,31.6475 104.9672,29.9445 104.9672,26.7675 C104.9672,23.6145 103.0312,21.9105 99.7932,21.9105 L96.4072,21.9105 L96.4072,31.6475 Z M101.8332,16.0005 C108.3532,16.0005 112.7692,20.2275 112.7692,26.7475 C112.7692,33.2255 108.1212,37.4525 101.3712,37.4525 L96.4072,37.4525 L96.4072,46.3485 L88.6882,46.3485 L88.6882,16.0005 L101.8332,16.0005 Z M132.5303,30.4492 L137.0513,30.4492 C139.8913,30.4492 141.5743,28.7872 141.5743,26.1582 C141.5743,23.5712 139.7853,21.8262 137.0313,21.8262 L132.5303,21.8262 L132.5303,30.4492 Z M132.5303,46.3482 L124.8113,46.3482 L124.8113,16.0002 L137.8083,16.0002 C145.3803,16.0002 149.4603,19.7442 149.4603,26.0112 C149.4603,29.7342 147.5893,33.1402 144.2653,34.5922 L150.3433,46.3482 L141.6783,46.3482 L136.4633,35.7282 L132.5303,35.7282 L132.5303,46.3482 Z M161.923,46.349 L161.923,16 L169.643,16 L169.643,46.349 L161.923,46.349 Z M182.841,46.349 L182.841,16 L190.561,16 L190.561,46.349 L182.841,46.349 Z M203.7588,46.3486 L203.7588,15.9996 L211.4788,15.9996 L211.4788,29.3346 L211.6468,29.3346 L221.9728,15.9996 L230.2588,15.9996 L219.6808,29.4816 L230.8688,46.3486 L221.8038,46.3486 L214.0648,34.4876 L211.4788,37.7676 L211.4788,46.3486 L203.7588,46.3486 Z M251.4502,34.1299 L258.3692,34.1299 L255.0042,22.4369 L254.8362,22.4369 L251.4502,34.1299 Z M259.8842,39.6829 L249.9572,39.6829 L248.0212,46.3489 L240.1562,46.3489 L250.3562,15.9999 L259.7992,15.9999 L270.0002,46.3489 L261.7982,46.3489 L259.8842,39.6829 Z" id="papriika-wordmark-200"></path>
            </g>
        </g>
    </g>
</svg>